<svg width="62" height="54" viewBox="0 0 62 54" fill="none" xmlns="http://www.w3.org/2000/svg">
<g clip-path="url(#clip0_829_660)">
<g filter="url(#filter0_dd_829_660)">
<path d="M29.1836 6.64152L31 9.13661L32.8164 6.64152C35.8438 2.47098 40.7117 0 45.8824 0C54.7828 0 62 7.18393 62 16.0433V16.3567C62 29.8808 45.059 45.5866 36.2191 52.3004C34.7176 53.4335 32.877 54 31 54C29.123 54 27.2703 53.4455 25.7809 52.3004C16.941 45.5866 0 29.8808 0 16.3567V16.0433C0 7.18393 7.21719 0 16.1176 0C21.2883 0 26.1562 2.47098 29.1836 6.64152Z" fill="#FFFCFE" fill-opacity="0.2" shape-rendering="crispEdges"/>
<path d="M45.8828 0.5C54.5089 0.500211 61.4998 7.46219 61.5 16.043V16.3564C61.5 22.9338 57.3653 30.1242 52.0391 36.5635C46.7303 42.9816 40.3167 48.5604 35.918 51.9014C34.5101 52.9637 32.7773 53.5 31 53.5C29.2195 53.5 27.4776 52.974 26.0859 51.9043L26.083 51.9023L25.2354 51.25C20.8867 47.8608 14.9383 42.5809 9.96094 36.5635C4.63474 30.1242 0.5 22.9338 0.5 16.3564V16.043C0.500182 7.46219 7.49105 0.500211 16.1172 0.5C20.9722 0.5 25.5514 2.74782 28.499 6.56152L28.7793 6.93555L30.5957 9.43066L31 9.98633L31.4043 9.43066L33.2207 6.93555C36.1534 2.89541 40.8712 0.5 45.8828 0.5Z" stroke="url(#paint0_linear_829_660)" shape-rendering="crispEdges"/>
</g>
<path d="M18 20.8333C18 20.0958 18.6143 19.5 19.3463 19.5H43.4118C44.1438 19.5 45 20.0958 45 20.8333C45 21.5708 44.1438 22.1667 43.4118 22.1667H19.3463C18.6143 22.1667 18 21.5708 18 20.8333ZM20.1177 27.5C20.1177 26.7625 20.7958 26.1667 21.5279 26.1667H41.2942C42.0263 26.1667 42.8825 26.7625 42.8825 27.5C42.8825 28.2375 42.0263 28.8333 41.2942 28.8333H21.5279C20.7958 28.8333 20.1177 28.2375 20.1177 27.5ZM40.7648 34.1667C40.7648 34.9042 40.1734 35.5 39.4413 35.5H23.5589C22.8268 35.5 22.2354 34.9042 22.2354 34.1667C22.2354 33.4292 22.8268 32.8333 23.5589 32.8333H39.4413C40.1734 32.8333 40.7648 33.4292 40.7648 34.1667Z" fill="#FFD1E9"/>
</g>
<defs>
<filter id="filter0_dd_829_660" x="0" y="0" width="70" height="62" filterUnits="userSpaceOnUse" color-interpolation-filters="sRGB">
<feFlood flood-opacity="0" result="BackgroundImageFix"/>
<feColorMatrix in="SourceAlpha" type="matrix" values="0 0 0 0 0 0 0 0 0 0 0 0 0 0 0 0 0 0 127 0" result="hardAlpha"/>
<feOffset dx="4" dy="4"/>
<feGaussianBlur stdDeviation="2"/>
<feComposite in2="hardAlpha" operator="out"/>
<feColorMatrix type="matrix" values="0 0 0 0 0.0666667 0 0 0 0 0 0 0 0 0 0.0392157 0 0 0 0.05 0"/>
<feBlend mode="normal" in2="BackgroundImageFix" result="effect1_dropShadow_829_660"/>
<feColorMatrix in="SourceAlpha" type="matrix" values="0 0 0 0 0 0 0 0 0 0 0 0 0 0 0 0 0 0 127 0" result="hardAlpha"/>
<feOffset dx="4" dy="4"/>
<feGaussianBlur stdDeviation="2"/>
<feComposite in2="hardAlpha" operator="out"/>
<feColorMatrix type="matrix" values="0 0 0 0 1 0 0 0 0 0.819608 0 0 0 0 0.913725 0 0 0 0.03 0"/>
<feBlend mode="normal" in2="effect1_dropShadow_829_660" result="effect2_dropShadow_829_660"/>
<feBlend mode="normal" in="SourceGraphic" in2="effect2_dropShadow_829_660" result="shape"/>
</filter>
<linearGradient id="paint0_linear_829_660" x1="2.80887e-07" y1="0.692307" x2="62.348" y2="54.9774" gradientUnits="userSpaceOnUse">
<stop stop-color="#FFC2E2"/>
<stop offset="1" stop-color="#FFD1E9"/>
</linearGradient>
<clipPath id="clip0_829_660">
<rect width="62" height="54" fill="white"/>
</clipPath>
</defs>
</svg>
